<svg xmlns="http://www.w3.org/2000/svg" viewBox="0 0 512 512" width="100%" height="100%">
  <defs>
    <linearGradient id="bgGrad" x1="0%" y1="0%" x2="100%" y2="100%">
      <stop offset="0%" stop-color="#b91c1c" />
      <stop offset="100%" stop-color="#991b1b" />
    </linearGradient>
    <linearGradient id="goldGrad" x1="0%" y1="0%" x2="100%" y2="100%">
      <stop offset="0%" stop-color="#fef08a" />
      <stop offset="50%" stop-color="#fbbf24" />
      <stop offset="100%" stop-color="#d97706" />
    </linearGradient>
  </defs>
  <rect width="512" height="512" rx="112" fill="url(#bgGrad)" />
  <circle cx="256" cy="256" r="190" fill="none" stroke="url(#goldGrad)" stroke-width="8" stroke-dasharray="12 8" opacity="0.6"/>
  <circle cx="256" cy="256" r="160" fill="#1e1b4b" stroke="url(#goldGrad)" stroke-width="6"/>
  <!-- Sun Rays -->
  <g stroke="url(#goldGrad)" stroke-width="5" stroke-linecap="round" opacity="0.9">
    <line x1="256" y1="120" x2="256" y2="100"/>
    <line x1="256" y1="392" x2="256" y2="412"/>
    <line x1="120" y1="256" x2="100" y2="256"/>
    <line x1="392" y1="256" x2="412" y2="256"/>
    <line x1="160" y1="160" x2="145" y2="145"/>
    <line x1="352" y1="352" x2="367" y2="367"/>
    <line x1="352" y1="160" x2="367" y2="145"/>
    <line x1="160" y1="352" x2="145" y2="367"/>
  </g>
  <!-- Crescent Moon & Sun Emblem -->
  <path d="M210,180 A80,80 0 1,0 330,300 A95,95 0 0,1 210,180 Z" fill="url(#goldGrad)" />
  <circle cx="256" cy="235" r="32" fill="#dc2626" stroke="#fbbf24" stroke-width="4"/>
  <!-- Decorative Star -->
  <polygon points="256,190 262,205 278,205 265,215 270,230 256,220 242,230 247,215 234,205 250,205" fill="#fef08a" />
</svg>
